<?xml version="1.0" encoding="utf-8"?>
<!-- Generator: Adobe Illustrator 22.0.1, SVG Export Plug-In . SVG Version: 6.00 Build 0)  -->
<svg version="1.1" id="Layer_1" xmlns="http://www.w3.org/2000/svg" xmlns:xlink="http://www.w3.org/1999/xlink" x="0px" y="0px"
	 viewBox="0 0 257 62" style="enable-background:new 0 0 257 62;" xml:space="preserve">
<style type="text/css">
	.st0{fill:#DC4405;}
	.st1{fill:url(#SVGID_1_);}
</style>
<path class="st0" d="M76.7,54.3c2.2,0,3.9-0.6,5.1-1.8s1.9-2.8,1.9-5v-2.1l-3.5,0.1c-2.8,0.1-4.8,0.5-6,1.3s-1.8,1.9-1.8,3.5
	c0,1.3,0.4,2.2,1.1,2.9C74.3,54,75.3,54.3,76.7,54.3 M84.6,56.7l-0.7-3.3h-0.2c-1.1,1.4-2.3,2.4-3.4,2.9s-2.6,0.8-4.3,0.8
	c-2.3,0-4.1-0.6-5.3-1.8c-1.3-1.2-1.9-2.8-1.9-5c0-4.6,3.7-7.1,11.1-7.3l3.9-0.1v-1.4c0-1.8-0.4-3.1-1.2-4c-0.8-0.9-2-1.3-3.7-1.3
	c-1.9,0-4.1,0.6-6.5,1.8l-1.1-2.7c1.1-0.6,2.4-1.1,3.7-1.4c1.3-0.3,2.7-0.5,4-0.5c2.7,0,4.8,0.6,6.1,1.8c1.3,1.2,2,3.2,2,5.8v15.7
	C87.1,56.7,84.6,56.7,84.6,56.7z M102.4,54.3c2.4,0,4.1-0.6,5.2-1.9c1.1-1.3,1.6-3.4,1.6-6.2v-0.7c0-3.3-0.5-5.6-1.6-7
	s-2.8-2.1-5.2-2.1c-2,0-3.6,0.8-4.7,2.4s-1.6,3.8-1.6,6.7s0.5,5.1,1.6,6.6C98.8,53.5,100.4,54.3,102.4,54.3 M109.4,53.7h-0.2
	c-1.6,2.3-4,3.5-7.2,3.5c-3,0-5.3-1-7-3.1s-2.5-5-2.5-8.7c0-3.8,0.8-6.7,2.5-8.8s4-3.1,7-3.1c3.1,0,5.5,1.1,7.2,3.4h0.3l-0.1-1.7
	l-0.1-1.6v-9.3h3.5v32.6H110C110,56.9,109.4,53.7,109.4,53.7z M125.2,56.7l-8.7-22.9h3.7l4.9,13.6c1.1,3.2,1.8,5.2,2,6.2h0.2
	c0.2-0.7,0.6-2.3,1.5-4.6c0.8-2.3,2.6-7.4,5.5-15.2h3.7l-8.7,22.9C129.3,56.7,125.2,56.7,125.2,56.7z M147.4,54.3
	c2.2,0,3.9-0.6,5.1-1.8c1.2-1.2,1.9-2.8,1.9-5v-2.1l-3.5,0.1c-2.8,0.1-4.8,0.5-6,1.3s-1.8,1.9-1.8,3.5c0,1.3,0.4,2.2,1.1,2.9
	C145,54,146,54.3,147.4,54.3 M155.2,56.7l-0.7-3.3h-0.2c-1.1,1.4-2.3,2.4-3.4,2.9s-2.6,0.8-4.3,0.8c-2.3,0-4.1-0.6-5.3-1.8
	c-1.3-1.2-1.9-2.8-1.9-5c0-4.6,3.7-7.1,11.1-7.3l3.9-0.1v-1.4c0-1.8-0.4-3.1-1.2-4s-2-1.3-3.7-1.3c-1.9,0-4.1,0.6-6.5,1.8l-1.1-2.7
	c1.1-0.6,2.4-1.1,3.7-1.4c1.3-0.3,2.7-0.5,4-0.5c2.7,0,4.8,0.6,6.1,1.8c1.3,1.2,2,3.2,2,5.8v15.7L155.2,56.7L155.2,56.7z M180,56.7
	V41.9c0-1.9-0.4-3.3-1.3-4.2c-0.9-0.9-2.2-1.4-4-1.4c-2.4,0-4.2,0.6-5.3,1.9s-1.7,3.4-1.7,6.4v12h-3.5V33.8h2.8l0.6,3.1h0.2
	c0.7-1.1,1.7-2,3-2.6s2.7-0.9,4.3-0.9c2.8,0,4.8,0.7,6.2,2c1.4,1.3,2.1,3.5,2.1,6.4v15H180V56.7z M199.2,57.2c-3.3,0-5.9-1-7.7-3.1
	c-1.8-2-2.7-4.9-2.7-8.7s0.9-6.8,2.8-8.9c1.8-2.1,4.5-3.1,7.9-3.1c1.1,0,2.2,0.1,3.3,0.4c1.1,0.2,2,0.5,2.6,0.8l-1.1,3
	c-0.8-0.3-1.6-0.6-2.5-0.8s-1.7-0.3-2.4-0.3c-4.7,0-7,3-7,8.9c0,2.8,0.6,5,1.7,6.5s2.8,2.3,5.1,2.3c1.9,0,3.9-0.4,5.9-1.2v3
	C203.4,56.8,201.5,57.2,199.2,57.2 M218.2,36.3c-1.8,0-3.3,0.6-4.4,1.8c-1.1,1.2-1.7,2.9-1.9,5h12c0-2.2-0.5-3.9-1.5-5
	C221.4,36.9,220,36.3,218.2,36.3 M219.1,57.2c-3.4,0-6.1-1-8-3.1c-2-2.1-2.9-4.9-2.9-8.6c0-3.7,0.9-6.6,2.7-8.8s4.3-3.3,7.3-3.3
	c2.9,0,5.1,0.9,6.8,2.8c1.7,1.9,2.5,4.4,2.5,7.5v2.2h-15.8c0.1,2.7,0.7,4.7,2,6.1c1.3,1.4,3.1,2.1,5.5,2.1c2.5,0,4.9-0.5,7.3-1.5
	v3.1c-1.2,0.5-2.4,0.9-3.5,1.1C222,57.1,220.7,57.2,219.1,57.2 M241.8,54.3c2.4,0,4.1-0.6,5.2-1.9c1.1-1.3,1.6-3.4,1.6-6.2v-0.7
	c0-3.3-0.5-5.6-1.6-7s-2.8-2.1-5.2-2.1c-2,0-3.6,0.8-4.7,2.4c-1.1,1.6-1.6,3.8-1.6,6.7s0.5,5.1,1.6,6.6
	C238.1,53.5,239.7,54.3,241.8,54.3 M248.7,53.7h-0.2c-1.6,2.3-4,3.5-7.2,3.5c-3,0-5.3-1-7-3.1s-2.5-5-2.5-8.7c0-3.8,0.8-6.7,2.5-8.8
	c1.7-2.1,4-3.1,7-3.1c3.1,0,5.5,1.1,7.2,3.4h0.3l-0.1-1.7l-0.1-1.6v-9.3h3.5v32.6h-2.8L248.7,53.7L248.7,53.7z"/>
<linearGradient id="SVGID_1_" gradientUnits="userSpaceOnUse" x1="34.55" y1="58.11" x2="34.55" y2="7.124" gradientTransform="matrix(1 0 0 -1 0 64)">
	<stop  offset="0" style="stop-color:#FFCD00"/>
	<stop  offset="1" style="stop-color:#DC4405"/>
</linearGradient>
<path class="st1" d="M34.5,6L5,57.2h15.6l13.9-24.1l13.9,24.1h15.7L34.5,6z"/>
</svg>
